<svg xmlns="http://www.w3.org/2000/svg" version="1.1" xmlns:xlink="http://www.w3.org/1999/xlink" xmlns:svgjs="http://svgjs.com/svgjs" width="180" height="180"><svg width="180" height="180" viewBox="0 0 180 180" fill="none" xmlns="http://www.w3.org/2000/svg">
<path d="M99.4215 101.309C96.9946 104.275 93.6239 105.758 89.3094 105.758C84.995 105.758 81.5793 104.275 79.0626 101.309C76.6357 98.3423 75.4222 94.2076 75.4222 88.9044C75.4222 83.5113 76.6357 79.3766 79.0626 76.5003C81.5793 73.5341 84.995 72.051 89.3094 72.051C93.6239 72.051 96.9946 73.5341 99.4215 76.5003C101.938 79.3766 103.197 83.5113 103.197 88.9044C103.197 94.2076 101.938 98.3423 99.4215 101.309Z" fill="black"></path>
<path fill-rule="evenodd" clip-rule="evenodd" d="M2.60944 46.3187C-3.22873 60.4133 1.31854 77.384 10.4131 111.325C19.5076 145.267 24.0549 162.237 36.1582 171.524C39.2742 173.915 42.6901 175.888 46.3187 177.391C60.4133 183.229 77.384 178.681 111.325 169.587C145.267 160.492 162.237 155.945 171.524 143.842C173.915 140.726 175.888 137.31 177.391 133.681C183.229 119.587 178.681 102.616 169.587 68.6747C160.492 34.7335 155.945 17.7628 143.842 8.47561C140.726 6.08465 137.31 4.11246 133.681 2.60944C119.587 -3.22873 102.616 1.31854 68.6747 10.4131C34.7335 19.5076 17.7628 24.0549 8.47561 36.1582C6.08465 39.2742 4.11246 42.6901 2.60944 46.3187ZM58.9733 135.285C66.973 139.689 76.2761 141.892 86.8825 141.892H109.938V129.353H86.8825C78.8828 129.353 71.9167 127.69 65.9843 124.364C60.0519 121.038 55.4228 116.274 52.0971 110.072C48.8613 103.87 47.2433 96.4997 47.2433 87.9606C47.2433 79.9609 49.041 72.815 52.6364 66.5231C56.2318 60.2311 61.2654 55.3324 67.7371 51.8269C74.2987 48.3214 81.849 46.5686 90.3881 46.5686C99.4664 46.5686 107.197 48.4113 113.578 52.0966C120.05 55.7818 124.904 60.6356 128.14 66.6579C131.465 72.6802 133.128 79.2418 133.128 86.3427C133.128 93.1739 132.185 98.0277 130.297 100.904C128.499 103.69 125.938 105.084 122.612 105.084C120.365 105.084 118.567 104.365 117.219 102.926C115.96 101.398 115.331 99.3311 115.331 96.7244V61.2648H105.219L103.871 67.0624H103.197C101.579 65.1748 99.4215 63.6468 96.7249 62.4783C94.1183 61.2199 90.8375 60.5907 86.8825 60.5907C81.9389 60.5907 77.6244 61.8041 73.9391 64.231C70.3437 66.568 67.5573 69.8938 65.5798 74.2082C63.6024 78.4328 62.6136 83.3315 62.6136 88.9044C62.6136 97.3536 64.8158 104.185 69.2202 109.398C73.7144 114.611 79.8266 117.218 87.5567 117.218C92.0509 117.218 95.8261 116.364 98.8822 114.656C102.028 112.949 104.365 110.791 105.893 108.185H106.567C107.736 110.612 109.668 112.724 112.365 114.522C115.151 116.319 118.567 117.218 122.612 117.218C127.196 117.218 131.241 116.14 134.746 113.982C138.342 111.735 141.173 108.275 143.24 103.601C145.308 98.9266 146.341 93.0391 146.341 85.9382C146.341 76.4104 144.094 67.6916 139.6 59.7817C135.106 51.8719 128.634 45.6249 120.185 41.0407C111.736 36.3667 101.803 34.0297 90.3881 34.0297C79.1524 34.0297 69.2651 36.3218 60.7261 40.9059C52.187 45.4001 45.5805 51.737 40.9064 59.9166C36.3223 68.0961 34.0303 77.4441 34.0303 87.9606C34.0303 98.8367 36.1875 108.364 40.502 116.544C44.9063 124.634 51.0634 130.881 58.9733 135.285Z" fill="black"></path>
</svg><style>@media (prefers-color-scheme: light) { :root { filter: none; } }
@media (prefers-color-scheme: dark) { :root { filter: invert(100%); } }
</style></svg>