<svg width="24" height="24" viewBox="0 0 24 24" fill="none" xmlns="http://www.w3.org/2000/svg">
<path fill-rule="evenodd" clip-rule="evenodd" d="M0.347926 6.17583C-0.430498 8.05511 0.175805 10.3179 1.38841 14.8434C2.60102 19.3689 3.20732 21.6316 4.82109 22.8699C5.23656 23.1887 5.69201 23.4517 6.17583 23.6521C8.05511 24.4305 10.3179 23.8242 14.8433 22.6116L14.8434 22.6116C19.3689 21.399 21.6316 20.7927 22.8699 19.1789C23.1887 18.7634 23.4517 18.308 23.6521 17.8242C24.4305 15.9449 23.8242 13.6821 22.6116 9.15663C21.399 4.63113 20.7927 2.36837 19.1789 1.13008C18.7634 0.811287 18.308 0.548328 17.8242 0.347926C15.9449 -0.430498 13.6821 0.175805 9.15663 1.38841C4.63113 2.60102 2.36837 3.20732 1.13008 4.82109C0.811287 5.23656 0.548328 5.69201 0.347926 6.17583ZM18.8068 12.8519C18.9356 12.325 19 11.7921 19 11.2534C19 10.2815 18.8419 9.41489 18.5257 8.6537C18.2095 7.8808 17.7587 7.22501 17.1731 6.68632C16.5993 6.13593 15.9143 5.7202 15.1179 5.43915C14.3333 5.14638 13.4726 5 12.5358 5C11.3881 5 10.3517 5.19322 9.4266 5.57967C8.50146 5.95441 7.70514 6.48724 7.03764 7.17817C6.38185 7.85738 5.87829 8.6537 5.52698 9.56713C5.17566 10.4806 5 11.4701 5 12.5358C5 13.8942 5.26934 15.0594 5.80803 16.0314C6.35843 16.9916 7.14889 17.7294 8.17942 18.2447C9.20995 18.7599 10.4513 19.0176 11.9034 19.0176C12.6763 19.0176 13.4082 18.9473 14.0991 18.8068C14.79 18.6662 15.4166 18.4789 15.9787 18.2447V16.5935C15.3697 16.816 14.6964 17.0033 13.9586 17.1556C13.2208 17.3078 12.5123 17.3839 11.8331 17.3839C10.7675 17.3839 9.86575 17.1966 9.12798 16.8218C8.40192 16.4471 7.84567 15.8967 7.45922 15.1706C7.08448 14.4329 6.89711 13.537 6.89711 12.4831C6.89711 11.6399 7.01422 10.8611 7.24843 10.1468C7.49435 9.43245 7.85738 8.81179 8.33752 8.28482C8.81765 7.75784 9.40903 7.34797 10.1117 7.05521C10.8143 6.76244 11.6282 6.61606 12.5533 6.61606C13.4316 6.61606 14.2104 6.79757 14.8896 7.1606C15.5805 7.52363 16.1251 8.05061 16.5232 8.74153C16.9214 9.42074 17.1205 10.2522 17.1205 11.2359C17.1205 11.7629 17.0736 12.2488 16.9799 12.6939C16.898 13.1271 16.7691 13.4785 16.5935 13.7478C16.4178 14.0054 16.1953 14.1343 15.926 14.1343C15.762 14.1343 15.6098 14.0581 15.4693 13.9059C15.3404 13.7419 15.276 13.4199 15.276 12.9398V12.7114C15.276 12.5826 15.2819 12.4596 15.2936 12.3425L15.4693 8.74153C15.1414 8.62442 14.6788 8.51903 14.0816 8.42534C13.496 8.31995 12.9281 8.26725 12.3777 8.26725C11.5345 8.26725 10.8026 8.44291 10.1819 8.79423C9.56127 9.13384 9.08114 9.60811 8.74153 10.2171C8.40192 10.8143 8.23212 11.5052 8.23212 12.2898C8.23212 13.3087 8.51317 14.1343 9.07528 14.7666C9.6491 15.3873 10.4571 15.6976 11.4994 15.6976C12.0498 15.6976 12.5182 15.5864 12.9046 15.3639C13.3028 15.1414 13.619 14.8837 13.8532 14.591H13.9937C14.1225 14.9189 14.3509 15.1882 14.6788 15.399C15.0067 15.5981 15.3873 15.6976 15.8206 15.6976C16.3593 15.6976 16.8277 15.5747 17.2258 15.3287C17.624 15.0711 17.9519 14.7256 18.2095 14.2923C18.4789 13.8591 18.678 13.3789 18.8068 12.8519ZM10.6211 13.7127C10.3517 13.4316 10.2171 12.969 10.2171 12.325C10.2171 11.9034 10.2873 11.5052 10.4279 11.1305C10.5801 10.744 10.8202 10.4337 11.1481 10.1995C11.4877 9.95358 11.9327 9.83061 12.4831 9.83061C12.6821 9.83061 12.8637 9.84233 13.0276 9.86575C13.1916 9.87746 13.3379 9.89502 13.4668 9.91844L13.3614 11.8156C13.3145 12.5065 13.1681 13.0686 12.9222 13.5019C12.688 13.9235 12.2781 14.1343 11.6926 14.1343C11.2476 14.1343 10.8904 13.9937 10.6211 13.7127Z" fill="#FFB326"/>
</svg>
