<svg width="137" height="24" viewBox="0 0 137 24" fill="none" xmlns="http://www.w3.org/2000/svg">
<path fill-rule="evenodd" clip-rule="evenodd" d="M0.347926 6.17583C-0.430498 8.05511 0.175805 10.3179 1.38841 14.8434C2.60102 19.3689 3.20732 21.6316 4.82109 22.8699C5.23656 23.1887 5.69201 23.4517 6.17583 23.6521C8.05511 24.4305 10.3179 23.8242 14.8433 22.6116L14.8434 22.6116C19.3689 21.399 21.6316 20.7927 22.8699 19.1789C23.1887 18.7634 23.4517 18.308 23.6521 17.8242C24.4305 15.9449 23.8242 13.6821 22.6116 9.15663C21.399 4.63113 20.7927 2.36837 19.1789 1.13008C18.7634 0.811287 18.308 0.548328 17.8242 0.347926C15.9449 -0.430498 13.6821 0.175805 9.15663 1.38841C4.63113 2.60102 2.36837 3.20732 1.13008 4.82109C0.811287 5.23656 0.548328 5.69201 0.347926 6.17583ZM18.8068 12.8519C18.9356 12.325 19 11.7921 19 11.2534C19 10.2815 18.8419 9.41489 18.5257 8.6537C18.2095 7.8808 17.7587 7.22501 17.1731 6.68632C16.5993 6.13593 15.9143 5.7202 15.1179 5.43915C14.3333 5.14638 13.4726 5 12.5358 5C11.3881 5 10.3517 5.19322 9.4266 5.57967C8.50146 5.95441 7.70514 6.48724 7.03764 7.17817C6.38185 7.85738 5.87829 8.6537 5.52698 9.56713C5.17566 10.4806 5 11.4701 5 12.5358C5 13.8942 5.26934 15.0594 5.80803 16.0314C6.35843 16.9916 7.14889 17.7294 8.17942 18.2447C9.20995 18.7599 10.4513 19.0176 11.9034 19.0176C12.6763 19.0176 13.4082 18.9473 14.0991 18.8068C14.79 18.6662 15.4166 18.4789 15.9787 18.2447V16.5935C15.3697 16.816 14.6964 17.0033 13.9586 17.1556C13.2208 17.3078 12.5123 17.3839 11.8331 17.3839C10.7675 17.3839 9.86575 17.1966 9.12798 16.8218C8.40192 16.4471 7.84567 15.8967 7.45922 15.1706C7.08448 14.4329 6.89711 13.537 6.89711 12.4831C6.89711 11.6399 7.01422 10.8611 7.24843 10.1468C7.49435 9.43245 7.85738 8.81179 8.33752 8.28482C8.81765 7.75784 9.40903 7.34797 10.1117 7.05521C10.8143 6.76244 11.6282 6.61606 12.5533 6.61606C13.4316 6.61606 14.2104 6.79757 14.8896 7.1606C15.5805 7.52363 16.1251 8.05061 16.5232 8.74153C16.9214 9.42074 17.1205 10.2522 17.1205 11.2359C17.1205 11.7629 17.0736 12.2488 16.9799 12.6939C16.898 13.1271 16.7691 13.4785 16.5935 13.7478C16.4178 14.0054 16.1953 14.1343 15.926 14.1343C15.762 14.1343 15.6098 14.0581 15.4693 13.9059C15.3404 13.7419 15.276 13.4199 15.276 12.9398V12.7114C15.276 12.5826 15.2819 12.4596 15.2936 12.3425L15.4693 8.74153C15.1414 8.62442 14.6788 8.51903 14.0816 8.42534C13.496 8.31995 12.9281 8.26725 12.3777 8.26725C11.5345 8.26725 10.8026 8.44291 10.1819 8.79423C9.56127 9.13383 9.08114 9.60811 8.74153 10.2171C8.40192 10.8143 8.23212 11.5052 8.23212 12.2898C8.23212 13.3087 8.51317 14.1343 9.07528 14.7666C9.6491 15.3873 10.4571 15.6976 11.4994 15.6976C12.0498 15.6976 12.5182 15.5864 12.9046 15.3639C13.3028 15.1414 13.619 14.8837 13.8532 14.591H13.9937C14.1225 14.9189 14.3509 15.1882 14.6788 15.399C15.0067 15.5981 15.3873 15.6976 15.8206 15.6976C16.3593 15.6976 16.8277 15.5747 17.2258 15.3287C17.624 15.0711 17.9519 14.7256 18.2095 14.2923C18.4789 13.8591 18.678 13.3789 18.8068 12.8519ZM10.6211 13.7127C10.3517 13.4316 10.2171 12.969 10.2171 12.325C10.2171 11.9034 10.2873 11.5052 10.4279 11.1305C10.5801 10.744 10.8202 10.4337 11.1481 10.1995C11.4877 9.95358 11.9327 9.83061 12.4831 9.83061C12.6821 9.83061 12.8637 9.84233 13.0276 9.86575C13.1916 9.87746 13.3379 9.89502 13.4668 9.91844L13.3614 11.8156C13.3145 12.5065 13.1681 13.0686 12.9222 13.5019C12.688 13.9235 12.2781 14.1343 11.6926 14.1343C11.2476 14.1343 10.8904 13.9937 10.6211 13.7127Z" fill="#FFB326"/>
<path d="M36.7 18.6321C39.06 18.6321 40.62 17.3721 40.62 15.4521C40.62 10.8921 35.1 13.2321 35.1 11.1721C35.1 10.5321 35.64 10.1921 36.42 10.1921C37.18 10.1921 37.96 10.6521 38.08 11.5121H40.5C40.4 9.53209 38.76 8.23209 36.34 8.23209C34.28 8.23209 32.74 9.49208 32.74 11.2721C32.74 15.5121 38.16 13.4921 38.16 15.5521C38.16 16.1121 37.56 16.5321 36.7 16.5321C35.66 16.5321 34.96 15.9721 34.86 15.0721H32.46C32.56 17.2521 34.24 18.6321 36.7 18.6321Z" fill="white"/>
<path d="M48.5006 15.0521C48.2806 15.9121 47.5406 16.3521 46.4206 16.3521C45.0206 16.3521 44.1206 15.4721 43.9206 14.0521H51.1606C51.1806 13.8321 51.2006 13.5321 51.2006 13.1521C51.2006 10.8521 49.7806 8.23209 46.2206 8.23209C42.8006 8.23209 41.2406 10.8521 41.2406 13.4121C41.2406 15.9521 43.0006 18.6321 46.4206 18.6321C48.9006 18.6321 50.8206 17.2321 51.2206 15.0521H48.5006ZM46.2206 10.2721C47.5606 10.2721 48.3406 11.1721 48.4206 12.2921H43.9606C44.2006 10.8921 44.9606 10.2721 46.2206 10.2721Z" fill="white"/>
<path d="M55.1371 18.4721V12.9521C55.1371 11.6521 55.9971 10.7121 57.2171 10.7121C58.3771 10.7121 59.1572 11.5921 59.1572 12.8121V18.4721H61.9571V12.1921C61.9571 9.87209 60.4772 8.23209 58.1972 8.23209C56.8172 8.23209 55.6971 8.81209 55.1371 9.79209V8.39209H52.3372V18.4721H55.1371Z" fill="white"/>
<path d="M67.8373 18.6321C68.9973 18.6321 70.0373 18.1521 70.5973 17.3721V18.4721H73.3773V4.01208H70.5973V9.45209C70.0373 8.71209 69.0573 8.23209 67.7973 8.23209C64.8773 8.23209 63.0773 10.2921 63.0773 13.4321C63.0773 16.5721 64.8773 18.6321 67.8373 18.6321ZM68.2973 16.2321C66.8173 16.2321 65.8373 15.1121 65.8373 13.4321C65.8373 11.7321 66.8173 10.6121 68.2973 10.6121C69.7773 10.6121 70.7573 11.7321 70.7573 13.4321C70.7573 15.1121 69.7773 16.2321 68.2973 16.2321Z" fill="white"/>
<path d="M81.91 15.0521C81.69 15.9121 80.95 16.3521 79.83 16.3521C78.43 16.3521 77.53 15.4721 77.33 14.0521H84.57C84.59 13.8321 84.61 13.5321 84.61 13.1521C84.61 10.8521 83.19 8.23209 79.63 8.23209C76.21 8.23209 74.65 10.8521 74.65 13.4121C74.65 15.9521 76.41 18.6321 79.83 18.6321C82.31 18.6321 84.23 17.2321 84.63 15.0521H81.91ZM79.63 10.2721C80.97 10.2721 81.75 11.1721 81.83 12.2921H77.37C77.61 10.8921 78.37 10.2721 79.63 10.2721Z" fill="white"/>
<path d="M92.2065 8.39209H91.0665C89.8465 8.39209 89.0865 8.81209 88.5465 10.0721V8.39209H85.7465V18.4721H88.5465V13.5721C88.5465 11.8521 89.1665 10.7121 90.5465 10.7121H92.2065V8.39209Z" fill="white"/>
<path d="M96.0404 22.5521V17.5721C96.5804 18.2521 97.5604 18.6321 98.7004 18.6321C101.6 18.6321 103.56 16.5721 103.56 13.4321C103.56 10.2921 101.76 8.23209 98.9404 8.23209C97.6404 8.23209 96.6404 8.71209 96.0404 9.49209V8.39209H93.2604V22.5521H96.0404ZM98.3604 16.2321C96.8604 16.2321 95.8804 15.1121 95.8804 13.4321C95.8804 11.7321 96.8604 10.6121 98.3604 10.6121C99.8204 10.6121 100.82 11.7321 100.82 13.4321C100.82 15.1121 99.8204 16.2321 98.3604 16.2321Z" fill="white"/>
<path d="M107.613 18.4721V4.01208H104.833V18.4721H107.613Z" fill="white"/>
<path d="M113.531 8.23209C110.771 8.23209 109.131 9.85209 109.011 11.8721H111.491C111.531 11.0321 112.151 10.2721 113.371 10.2721C114.511 10.2721 115.171 10.8521 115.171 11.6921C115.171 12.1121 114.911 12.4321 114.411 12.4321H112.711C110.511 12.4321 109.031 13.6321 109.031 15.6121C109.031 17.3321 110.371 18.6321 112.331 18.6321C113.711 18.6321 114.831 18.0121 115.171 17.0721V18.4721H117.931V11.9921C117.931 9.71209 116.071 8.23209 113.531 8.23209ZM113.031 16.6121C112.251 16.6121 111.691 16.1521 111.691 15.4921C111.691 14.7121 112.291 14.1921 113.131 14.1921H115.171V14.3321C115.171 15.6121 114.391 16.6121 113.031 16.6121Z" fill="white"/>
<path d="M120.525 8.39209H118.585V10.7121H120.525V14.8121C120.525 17.1521 122.025 18.4721 124.345 18.4721H126.005V15.9521H124.725C123.825 15.9521 123.305 15.4921 123.305 14.5121V10.7121H126.005V8.39209H123.305V5.41208H120.525V8.39209Z" fill="white"/>
<path d="M133.67 15.0521C133.45 15.9121 132.71 16.3521 131.59 16.3521C130.19 16.3521 129.29 15.4721 129.09 14.0521H136.33C136.35 13.8321 136.37 13.5321 136.37 13.1521C136.37 10.8521 134.95 8.23209 131.39 8.23209C127.97 8.23209 126.41 10.8521 126.41 13.4121C126.41 15.9521 128.17 18.6321 131.59 18.6321C134.07 18.6321 135.99 17.2321 136.39 15.0521H133.67ZM131.39 10.2721C132.73 10.2721 133.51 11.1721 133.59 12.2921H129.13C129.37 10.8921 130.13 10.2721 131.39 10.2721Z" fill="white"/>
</svg>
