<svg width="320" height="57" viewBox="0 0 320 57" fill="none" xmlns="http://www.w3.org/2000/svg">
<path fill-rule="evenodd" clip-rule="evenodd" d="M0.816307 14.4898C-1.01004 18.899 0.412475 24.2079 3.2575 34.8257C6.10253 45.4434 7.52504 50.7523 11.3113 53.6576C12.2861 54.4056 13.3547 55.0226 14.4898 55.4927C18.899 57.3191 24.2079 55.8966 34.8256 53.0516L34.8257 53.0515C45.4434 50.2065 50.7523 48.784 53.6576 44.9977C54.4056 44.023 55.0226 42.9544 55.4927 41.8193C57.3191 37.4101 55.8966 32.1012 53.0515 21.4834C50.2065 10.8656 48.784 5.5567 44.9977 2.65141C44.023 1.90345 42.9544 1.28649 41.8193 0.816307C37.4101 -1.01004 32.1012 0.412475 21.4834 3.2575C10.8656 6.10253 5.5567 7.52504 2.65141 11.3113C1.90345 12.2861 1.28649 13.3547 0.816307 14.4898ZM44.1246 30.1534C44.4269 28.917 44.578 27.6668 44.578 26.403C44.578 24.1225 44.2071 22.0893 43.4652 20.3034C42.7234 18.49 41.6656 16.9514 40.2918 15.6875C38.9455 14.3962 37.3382 13.4208 35.4699 12.7614C33.629 12.0745 31.6096 11.7311 29.4115 11.7311C26.7189 11.7311 24.2873 12.1844 22.1168 13.0911C19.9462 13.9703 18.0779 15.2204 16.5118 16.8415C14.9732 18.4351 13.7917 20.3034 12.9674 22.4465C12.1432 24.5896 11.7311 26.9113 11.7311 29.4115C11.7311 32.5987 12.363 35.3325 13.6269 37.613C14.9182 39.866 16.7728 41.5969 19.1906 42.8058C21.6085 44.0147 24.5209 44.6192 27.9278 44.6192C29.7412 44.6192 31.4584 44.4544 33.0795 44.1247C34.7006 43.7949 36.1705 43.3553 37.4893 42.8058V38.9318C36.0606 39.4538 34.4808 39.8934 32.7498 40.2506C31.0188 40.6078 29.3566 40.7864 27.763 40.7864C25.2627 40.7864 23.1471 40.3468 21.4162 39.4676C19.7127 38.5883 18.4076 37.297 17.5009 35.5935C16.6217 33.8626 16.1821 31.7607 16.1821 29.2879C16.1821 27.3097 16.4568 25.4825 17.0063 23.8065C17.5833 22.1305 18.4351 20.6743 19.5616 19.4379C20.6881 18.2015 22.0756 17.2399 23.7241 16.553C25.3726 15.8661 27.2822 15.5227 29.4527 15.5227C31.5134 15.5227 33.3405 15.9485 34.9341 16.8003C36.5552 17.652 37.8328 18.8884 38.7669 20.5095C39.7011 22.103 40.1682 24.0538 40.1682 26.3617C40.1682 27.5981 40.0583 28.7384 39.8385 29.7824C39.6461 30.799 39.3439 31.6233 38.9318 32.2552C38.5196 32.8597 37.9976 33.1619 37.3657 33.1619C36.981 33.1619 36.6238 32.9833 36.2941 32.6262C35.9919 32.2415 35.8408 31.4859 35.8408 30.3594V29.8237C35.8408 29.5214 35.8545 29.2329 35.882 28.9582L36.2941 20.5095C35.5248 20.2347 34.4395 19.9874 33.0383 19.7676C31.6645 19.5203 30.332 19.3967 29.0406 19.3967C27.0624 19.3967 25.3452 19.8088 23.889 20.6331C22.4328 21.4299 21.3063 22.5427 20.5095 23.9714C19.7127 25.3726 19.3143 26.9937 19.3143 28.8345C19.3143 31.2249 19.9737 33.1619 21.2925 34.6456C22.6388 36.1018 24.5346 36.8299 26.9799 36.8299C28.2713 36.8299 29.3703 36.5689 30.277 36.0469C31.2112 35.5248 31.953 34.9204 32.5025 34.2335H32.8322C33.1345 35.0028 33.6702 35.6347 34.4395 36.1293C35.2089 36.5964 36.1018 36.8299 37.1184 36.8299C38.3823 36.8299 39.4813 36.5414 40.4155 35.9644C41.3496 35.36 42.1189 34.5494 42.7234 33.5328C43.3553 32.5163 43.8224 31.3898 44.1246 30.1534ZM24.9193 32.1728C24.2873 31.5134 23.9714 30.4281 23.9714 28.917C23.9714 27.9278 24.1362 26.9937 24.4659 26.1145C24.8231 25.2078 25.3864 24.4797 26.1557 23.9302C26.9525 23.3532 27.9965 23.0647 29.2879 23.0647C29.755 23.0647 30.1808 23.0922 30.5655 23.1471C30.9502 23.1746 31.2936 23.2158 31.5958 23.2708L31.3485 27.7218C31.2386 29.3428 30.8952 30.6617 30.3182 31.6783C29.7687 32.6674 28.8071 33.1619 27.4333 33.1619C26.3892 33.1619 25.5512 32.8322 24.9193 32.1728Z" fill="white"/>
<path d="M86.1061 43.7147C91.6432 43.7147 95.3033 40.7585 95.3033 36.2537C95.3033 25.555 82.3522 31.0451 82.3522 26.212C82.3522 24.7104 83.6192 23.9127 85.4492 23.9127C87.2323 23.9127 89.0624 24.9919 89.3439 27.0097H95.0217C94.7871 22.3642 90.9393 19.3141 85.2615 19.3141C80.4283 19.3141 76.8151 22.2703 76.8151 26.4466C76.8151 36.3945 89.5316 31.6552 89.5316 36.4884C89.5316 37.8022 88.1239 38.7876 86.1061 38.7876C83.6661 38.7876 82.0237 37.4738 81.7891 35.3622H76.1582C76.3928 40.4769 80.3345 43.7147 86.1061 43.7147Z" fill="white"/>
<path d="M113.793 35.3152C113.277 37.333 111.541 38.3653 108.913 38.3653C105.628 38.3653 103.516 36.3007 103.047 32.969H120.034C120.081 32.4529 120.128 31.749 120.128 30.8575C120.128 25.4612 116.796 19.3141 108.444 19.3141C100.419 19.3141 96.7594 25.4612 96.7594 31.4675C96.7594 37.4268 100.889 43.7147 108.913 43.7147C114.731 43.7147 119.236 40.43 120.175 35.3152H113.793ZM108.444 24.1004C111.587 24.1004 113.417 26.212 113.605 28.8397H103.141C103.704 25.555 105.487 24.1004 108.444 24.1004Z" fill="white"/>
<path d="M129.364 43.3393V30.3882C129.364 27.3381 131.381 25.1327 134.244 25.1327C136.965 25.1327 138.795 27.1974 138.795 30.0597V43.3393H145.365V28.6051C145.365 23.1619 141.892 19.3141 136.543 19.3141C133.305 19.3141 130.678 20.6749 129.364 22.9742V19.6895H122.794V43.3393H129.364Z" fill="white"/>
<path d="M159.161 43.7147C161.882 43.7147 164.323 42.5885 165.636 40.7585V43.3393H172.159V9.41309H165.636V22.1765C164.323 20.4403 162.023 19.3141 159.067 19.3141C152.216 19.3141 147.993 24.1473 147.993 31.5144C147.993 38.8815 152.216 43.7147 159.161 43.7147ZM160.24 38.0838C156.768 38.0838 154.468 35.456 154.468 31.5144C154.468 27.5258 156.768 24.8981 160.24 24.8981C163.713 24.8981 166.012 27.5258 166.012 31.5144C166.012 35.456 163.713 38.0838 160.24 38.0838Z" fill="white"/>
<path d="M192.178 35.3152C191.662 37.333 189.926 38.3653 187.298 38.3653C184.013 38.3653 181.902 36.3007 181.433 32.969H198.419C198.466 32.4529 198.513 31.749 198.513 30.8575C198.513 25.4612 195.181 19.3141 186.829 19.3141C178.805 19.3141 175.145 25.4612 175.145 31.4675C175.145 37.4268 179.274 43.7147 187.298 43.7147C193.117 43.7147 197.622 40.43 198.56 35.3152H192.178ZM186.829 24.1004C189.973 24.1004 191.803 26.212 191.991 28.8397H181.527C182.09 25.555 183.873 24.1004 186.829 24.1004Z" fill="white"/>
<path d="M216.336 19.6895H213.662C210.799 19.6895 209.016 20.6749 207.749 23.6311V19.6895H201.18V43.3393H207.749V31.8429C207.749 27.8074 209.204 25.1327 212.441 25.1327H216.336V19.6895Z" fill="white"/>
<path d="M225.331 52.9118V41.2277C226.598 42.8231 228.898 43.7147 231.572 43.7147C238.376 43.7147 242.975 38.8815 242.975 31.5144C242.975 24.1473 238.752 19.3141 232.135 19.3141C229.085 19.3141 226.739 20.4403 225.331 22.2703V19.6895H218.809V52.9118H225.331ZM230.775 38.0838C227.255 38.0838 224.956 35.456 224.956 31.5144C224.956 27.5258 227.255 24.8981 230.775 24.8981C234.2 24.8981 236.546 27.5258 236.546 31.5144C236.546 35.456 234.2 38.0838 230.775 38.0838Z" fill="white"/>
<path d="M252.483 43.3393V9.41309H245.961V43.3393H252.483Z" fill="white"/>
<path d="M266.368 19.3141C259.893 19.3141 256.045 23.115 255.764 27.8543H261.582C261.676 25.8835 263.131 24.1004 265.993 24.1004C268.668 24.1004 270.216 25.4612 270.216 27.432C270.216 28.4174 269.606 29.1682 268.433 29.1682H264.445C259.283 29.1682 255.81 31.9836 255.81 36.6291C255.81 40.6646 258.954 43.7147 263.553 43.7147C266.791 43.7147 269.418 42.26 270.216 40.0546V43.3393H276.692V28.1358C276.692 22.7865 272.328 19.3141 266.368 19.3141ZM265.195 38.9753C263.365 38.9753 262.051 37.8961 262.051 36.3476C262.051 34.5175 263.459 33.2975 265.43 33.2975H270.216V33.626C270.216 36.6291 268.386 38.9753 265.195 38.9753Z" fill="white"/>
<path d="M282.776 19.6895H278.225V25.1327H282.776V34.7522C282.776 40.2423 286.296 43.3393 291.739 43.3393H295.634V37.4268H292.631C290.519 37.4268 289.299 36.3476 289.299 34.0483V25.1327H295.634V19.6895H289.299V12.6978H282.776V19.6895Z" fill="white"/>
<path d="M313.619 35.3152C313.102 37.333 311.366 38.3653 308.738 38.3653C305.454 38.3653 303.342 36.3007 302.873 32.969H319.859C319.906 32.4529 319.953 31.749 319.953 30.8575C319.953 25.4612 316.622 19.3141 308.269 19.3141C300.245 19.3141 296.585 25.4612 296.585 31.4675C296.585 37.4268 300.714 43.7147 308.738 43.7147C314.557 43.7147 319.062 40.43 320 35.3152H313.619ZM308.269 24.1004C311.413 24.1004 313.243 26.212 313.431 28.8397H302.967C303.53 25.555 305.313 24.1004 308.269 24.1004Z" fill="white"/>
</svg>
